<svg xmlns="http://www.w3.org/2000/svg" width="837" height="38" viewBox="0 0 837 38" fill="none">
<path d="M252.845 0.710938H203.074C201.986 0.711644 200.943 1.14443 200.174 1.9143C199.404 2.68417 198.971 3.72825 198.97 4.81738V33.5937C198.969 34.6844 199.401 35.7306 200.171 36.5026C200.941 37.2745 201.985 37.7091 203.074 37.7109H252.845C253.934 37.7095 254.978 37.275 255.748 36.503C256.518 35.7309 256.95 34.6845 256.949 33.5937V4.81738C256.948 3.72815 256.515 2.6838 255.745 1.91384C254.976 1.14387 253.933 0.711244 252.845 0.710938ZM210 29.9226V8.49396C210 8.46972 210.004 8.44561 210.013 8.42308C210.022 8.40055 210.035 8.38 210.052 8.36273C210.069 8.34545 210.089 8.33182 210.112 8.32252C210.134 8.31321 210.158 8.3084 210.182 8.30852H245.739C245.763 8.30835 245.787 8.31303 245.81 8.32229C245.832 8.33154 245.853 8.34525 245.87 8.3625C245.887 8.37974 245.901 8.4002 245.91 8.42277C245.919 8.44534 245.924 8.46957 245.924 8.49396V29.9226C245.924 29.9724 245.905 30.0204 245.871 30.0561C245.836 30.0918 245.789 30.1123 245.739 30.1132H210.182C210.158 30.1127 210.134 30.1074 210.111 30.0975C210.089 30.0877 210.069 30.0735 210.052 30.0558C210.035 30.0381 210.022 30.0172 210.013 29.9943C210.004 29.9715 209.999 29.9471 210 29.9226Z" fill="white"/>
<path d="M45.6234 0.710938H55.9054C55.9544 0.710819 56.0029 0.720365 56.0482 0.739078C56.0934 0.757791 56.1346 0.785278 56.1692 0.819958C56.2039 0.854637 56.2313 0.895868 56.25 0.941201C56.2687 0.986535 56.2782 1.03508 56.2781 1.08413V33.5937C56.2785 34.6843 55.8465 35.7305 55.077 36.5024C54.3075 37.2744 53.2634 37.709 52.174 37.7109H4.10407C3.24435 37.7098 1.2979 37.7008 0 37.697V33.5937V30.1132H11.2127H45.0655C45.0901 30.1132 45.1145 30.1081 45.1371 30.0984C45.1598 30.0887 45.1802 30.0746 45.1972 30.0568C45.2143 30.039 45.2275 30.0179 45.2362 29.9949C45.2449 29.9718 45.2489 29.9472 45.2479 29.9226V1.08413C45.2488 0.984937 45.2886 0.890073 45.3589 0.820188C45.4293 0.750304 45.5243 0.711068 45.6234 0.710938Z" fill="white"/>
<path d="M188.771 0.710938H132.249C132.15 0.71111 132.055 0.750473 131.986 0.820418C131.916 0.890363 131.876 0.985174 131.876 1.08412V7.93518C131.877 8.03403 131.916 8.12861 131.986 8.19851C132.056 8.2684 132.15 8.30794 132.249 8.3086H154.808C154.833 8.30791 154.858 8.31225 154.88 8.32129C154.903 8.33032 154.924 8.34387 154.942 8.36119C154.959 8.3785 154.973 8.39918 154.983 8.422C154.992 8.44482 154.997 8.4693 154.996 8.49396V37.3377C154.997 37.4369 155.037 37.5317 155.107 37.6016C155.178 37.6715 155.273 37.7108 155.372 37.7109H165.646C165.745 37.711 165.841 37.6719 165.912 37.6021C165.983 37.5324 166.024 37.4375 166.027 37.3377V8.49396C166.026 8.46961 166.03 8.44534 166.038 8.42262C166.047 8.39989 166.061 8.37917 166.078 8.3618C166.095 8.34444 166.115 8.33082 166.138 8.32167C166.16 8.31252 166.185 8.30804 166.209 8.3086H188.771C188.87 8.30738 188.964 8.26767 189.034 8.19789C189.103 8.12811 189.143 8.03383 189.144 7.93518V1.08412C189.143 0.985356 189.104 0.890798 189.034 0.820956C188.964 0.751115 188.87 0.711624 188.771 0.710938Z" fill="white"/>
<path d="M322.406 0.71095H312.129C312.03 0.710615 311.935 0.749755 311.864 0.819739C311.794 0.889723 311.754 0.984804 311.754 1.08414V29.9226C311.754 29.9471 311.75 29.9715 311.741 29.9943C311.732 30.0172 311.719 30.0381 311.702 30.0558C311.685 30.0735 311.665 30.0877 311.642 30.0975C311.62 30.1074 311.596 30.1127 311.571 30.1132H277.989C277.965 30.113 277.94 30.1078 277.917 30.0981C277.895 30.0884 277.874 30.0743 277.857 30.0566C277.84 30.0389 277.826 30.0179 277.817 29.9949C277.808 29.9719 277.804 29.9473 277.804 29.9226V1.08414C277.804 1.03488 277.794 0.986077 277.775 0.940598C277.757 0.895119 277.729 0.853901 277.694 0.8192C277.659 0.7845 277.618 0.757052 277.572 0.738474C277.527 0.719896 277.478 0.710544 277.429 0.71095H267.149C267.101 0.711115 267.052 0.720856 267.007 0.739704C266.962 0.758552 266.921 0.786156 266.887 0.820815C266.853 0.855474 266.825 0.896562 266.807 0.941751C266.788 0.986939 266.779 1.0353 266.779 1.08414V33.5937C266.778 34.6842 267.209 35.7306 267.978 36.5027C268.747 37.2749 269.791 37.7094 270.881 37.7109H318.677C319.767 37.7095 320.811 37.2752 321.581 36.5032C322.351 35.7312 322.784 34.6847 322.784 33.5937V1.08414C322.783 0.984517 322.742 0.88936 322.671 0.819431C322.601 0.749502 322.505 0.710506 322.406 0.71095Z" fill="white"/>
<path d="M389.874 37.0313L368.883 22.6203H385.233C386.32 22.6205 387.362 22.1886 388.131 21.4196C388.899 20.6505 389.331 19.6074 389.332 18.5194V4.81738C389.332 4.27828 389.226 3.74432 389.02 3.24614C388.815 2.74796 388.513 2.29527 388.132 1.91392C387.752 1.53258 387.3 1.23005 386.802 1.02363C386.305 0.817205 385.772 0.710992 385.233 0.710946H332.978C332.929 0.710618 332.881 0.720061 332.835 0.7387C332.79 0.757339 332.749 0.784783 332.714 0.819504C332.679 0.854225 332.652 0.895473 332.633 0.940901C332.615 0.986328 332.605 1.03503 332.605 1.08413V37.3377C332.606 37.4366 332.645 37.5314 332.715 37.6013C332.785 37.6712 332.879 37.7107 332.978 37.7109H343.257C343.356 37.7098 343.45 37.6701 343.52 37.6004C343.59 37.5306 343.629 37.4364 343.63 37.3377V16.3842L374.471 37.547C374.628 37.6533 374.813 37.7104 375.002 37.7109H389.664C389.744 37.7106 389.821 37.6849 389.884 37.6377C389.948 37.5904 389.995 37.524 390.018 37.4482C390.042 37.3723 390.04 37.2909 390.014 37.216C389.988 37.141 389.939 37.0763 389.874 37.0313ZM343.815 8.30861H378.124C378.149 8.30838 378.173 8.31301 378.196 8.32222C378.219 8.33142 378.239 8.34505 378.257 8.36227C378.274 8.3795 378.288 8.40002 378.297 8.42263C378.307 8.44523 378.312 8.46945 378.312 8.49397V14.8428C378.312 14.8673 378.307 14.8916 378.297 14.9142C378.288 14.9368 378.274 14.9572 378.257 14.9744C378.239 14.9916 378.219 15.0052 378.196 15.0144C378.173 15.0235 378.149 15.0281 378.124 15.0279H343.815C343.791 15.0281 343.767 15.0234 343.744 15.0142C343.722 15.005 343.701 14.9914 343.684 14.9742C343.667 14.9569 343.653 14.9364 343.644 14.9139C343.635 14.8913 343.63 14.8672 343.63 14.8428V8.49397C343.63 8.4696 343.635 8.44542 343.644 8.42286C343.653 8.40029 343.667 8.37983 343.684 8.36258C343.701 8.34533 343.722 8.33163 343.744 8.32237C343.767 8.31311 343.791 8.30844 343.815 8.30861Z" fill="white"/>
<path d="M121.682 8.3086C121.781 8.30836 121.875 8.26895 121.945 8.19897C122.015 8.12898 122.055 8.03416 122.055 7.93519V1.08413C122.055 1.03507 122.045 0.98646 122.027 0.941125C122.008 0.89579 121.98 0.854635 121.946 0.819959C121.911 0.785283 121.87 0.757788 121.825 0.739079C121.779 0.720369 121.731 0.71082 121.682 0.71094H70.213C69.674 0.71039 69.1402 0.816202 68.642 1.02231C68.1439 1.22842 67.6912 1.53079 67.3098 1.91215C66.9284 2.29351 66.6259 2.74633 66.4194 3.24483C66.2129 3.74332 66.1066 4.27772 66.1064 4.81738V33.5937C66.1058 34.6849 66.538 35.7316 67.3082 36.5037C68.0783 37.2758 69.1232 37.71 70.213 37.7109H121.682C121.781 37.7102 121.875 37.6707 121.945 37.6008C122.015 37.531 122.054 37.4365 122.055 37.3377V30.4891C122.055 30.4398 122.046 30.391 122.027 30.3454C122.009 30.2998 121.981 30.2583 121.947 30.2234C121.912 30.1884 121.871 30.1606 121.825 30.1417C121.78 30.1228 121.731 30.1131 121.682 30.1132H77.3218C77.2966 30.1136 77.2715 30.1089 77.2481 30.0995C77.2247 30.0901 77.2034 30.0761 77.1854 30.0584C77.1674 30.0406 77.1531 30.0195 77.1434 29.9962C77.1337 29.9729 77.1287 29.9479 77.1287 29.9226V23.1951C77.1286 23.1698 77.1336 23.1448 77.1433 23.1214C77.153 23.0981 77.1673 23.0769 77.1853 23.0591C77.2033 23.0413 77.2246 23.0274 77.248 23.018C77.2715 23.0085 77.2966 23.0038 77.3218 23.0042H118.841C118.89 23.0048 118.939 22.9957 118.985 22.9772C119.031 22.9587 119.072 22.9313 119.107 22.8966C119.142 22.8618 119.17 22.8204 119.189 22.7749C119.208 22.7293 119.217 22.6803 119.217 22.631V15.788C119.217 15.7385 119.208 15.6895 119.189 15.6437C119.17 15.598 119.142 15.5564 119.107 15.5214C119.072 15.4864 119.031 15.4587 118.985 15.44C118.939 15.4212 118.891 15.4117 118.841 15.4121H77.3218C77.2717 15.4131 77.2231 15.3942 77.1869 15.3594C77.1507 15.3246 77.1298 15.2769 77.1287 15.2267V8.49397C77.1288 8.46896 77.1339 8.44422 77.1437 8.42124C77.1535 8.39825 77.1679 8.3775 77.1859 8.36019C77.2039 8.34289 77.2253 8.32938 77.2486 8.32052C77.272 8.31166 77.2969 8.30754 77.3218 8.30853L121.682 8.3086Z" fill="white"/>
<path d="M704.097 1.01953H694.841C694.608 1.01953 694.419 1.2086 694.419 1.44182V37.5771C694.419 37.8103 694.608 37.9994 694.841 37.9994H704.097C704.33 37.9994 704.519 37.8103 704.519 37.5771V1.44182C704.519 1.2086 704.33 1.01953 704.097 1.01953Z" fill="white"/>
<path d="M475.137 1.01953H431.422C431.31 1.01986 431.202 1.06445 431.123 1.14358C431.044 1.2227 431 1.32989 431 1.44178V37.5771C431 37.6891 431.044 37.7963 431.123 37.8753C431.202 37.9545 431.31 37.999 431.422 37.9994H475.137C477.976 37.9911 480.697 36.8597 482.704 34.8522C484.712 32.8447 485.843 30.1243 485.851 27.2853V11.7336C485.843 8.89458 484.712 6.17426 482.704 4.16678C480.697 2.1593 477.976 1.02785 475.137 1.01953ZM475.613 25.2118C475.61 26.6314 475.044 27.9915 474.04 28.9953C473.036 29.999 471.675 30.5648 470.257 30.5689H441.926C441.861 30.5665 441.797 30.557 441.734 30.5405C441.694 30.5312 441.655 30.5192 441.618 30.5044L441.61 30.501C441.465 30.4455 441.341 30.3455 441.256 30.2154C441.245 30.1998 441.234 30.184 441.224 30.1676C441.216 30.1516 441.206 30.136 441.198 30.1198C441.142 30.0148 441.108 29.8992 441.1 29.7805V9.32375L441.101 9.31479L441.1 9.30342C441.101 9.23123 441.111 9.15943 441.131 9.08978C441.139 9.05036 441.152 9.01165 441.166 8.97397L441.17 8.96618C441.226 8.82113 441.325 8.69732 441.456 8.61254C441.471 8.60138 441.487 8.59091 441.503 8.58071C441.519 8.57159 441.535 8.56258 441.551 8.55471C441.66 8.49567 441.781 8.46134 441.904 8.45411C441.917 8.4528 441.924 8.4519 441.931 8.45142L441.946 8.45004H470.257C471.675 8.45421 473.036 9.01994 474.04 10.0237C475.044 11.0274 475.61 12.3875 475.613 13.807V25.2118Z" fill="white"/>
<path d="M681.863 1.01953H672.607C672.494 1.01987 672.387 1.06445 672.308 1.14358C672.229 1.2227 672.185 1.32989 672.185 1.44178V15.458L672.184 15.4659C672.176 15.5896 672.142 15.7102 672.083 15.8193C672.075 15.8355 672.066 15.851 672.057 15.8671C672.047 15.8834 672.037 15.8993 672.026 15.9147C671.941 16.045 671.817 16.1449 671.672 16.2004L671.664 16.2039C671.626 16.2186 671.588 16.2307 671.549 16.2398C671.484 16.2567 671.419 16.2664 671.352 16.2686H638.368L638.362 16.268L638.355 16.2686H638.346C638.276 16.2673 638.205 16.2573 638.137 16.2388C638.098 16.2297 638.059 16.2176 638.022 16.2028L638.013 16.1993C637.869 16.1438 637.744 16.0439 637.66 15.9137C637.649 15.8982 637.638 15.8823 637.628 15.866C637.618 15.8499 637.61 15.8344 637.602 15.8182C637.544 15.7106 637.51 15.5917 637.502 15.4697V1.44178C637.502 1.32988 637.457 1.2227 637.378 1.14358C637.299 1.06445 637.192 1.01986 637.079 1.01953H627.823C627.712 1.01986 627.605 1.06445 627.525 1.14358C627.446 1.2227 627.401 1.32988 627.401 1.44178V37.5771C627.401 37.6891 627.446 37.7963 627.525 37.8753C627.605 37.9545 627.712 37.9992 627.823 37.9994H637.079C637.192 37.9992 637.299 37.9545 637.378 37.8753C637.457 37.7963 637.502 37.6891 637.502 37.5771V24.565L637.504 24.556V24.5445C637.504 24.4723 637.515 24.4006 637.533 24.331C637.542 24.2915 637.554 24.2528 637.569 24.2152L637.573 24.2073C637.628 24.0623 637.728 23.9385 637.859 23.8538C637.874 23.8426 637.89 23.832 637.906 23.822C637.922 23.8127 637.938 23.8037 637.954 23.7959C638.056 23.7412 638.168 23.7083 638.284 23.699H671.403C671.519 23.7083 671.632 23.7412 671.735 23.7959C671.751 23.8037 671.766 23.8127 671.782 23.822C671.799 23.832 671.815 23.8426 671.83 23.8538C671.96 23.9385 672.06 24.0623 672.116 24.2073L672.12 24.2152C672.134 24.2528 672.145 24.2915 672.155 24.331C672.173 24.3981 672.182 24.4674 672.185 24.537V24.5509L672.184 24.556L672.185 24.5599V37.5771C672.185 37.6891 672.229 37.7963 672.308 37.8753C672.387 37.9545 672.494 37.999 672.607 37.9994H681.863C681.975 37.999 682.082 37.9545 682.161 37.8753C682.24 37.7963 682.285 37.6891 682.286 37.5771V1.44178C682.285 1.32989 682.24 1.2227 682.161 1.14358C682.082 1.06446 681.975 1.01987 681.863 1.01953Z" fill="white"/>
<path d="M792.697 8.4305H836.522C836.634 8.43017 836.742 8.38551 836.821 8.30639C836.9 8.22726 836.944 8.12007 836.945 8.00818V1.42225C836.945 1.31035 836.9 1.20317 836.821 1.12405C836.742 1.04492 836.634 1.00032 836.522 1H792.048C792.015 1.00255 791.981 1.0093 791.949 1.0201H785.632C784.685 1.02286 783.779 1.39998 783.11 2.06914C782.44 2.7383 782.063 3.64511 782.061 4.59143V34.4286C782.063 35.375 782.44 36.2817 783.11 36.9509C783.779 37.62 784.685 37.9973 785.632 38H833.373C834.319 37.9972 835.227 37.62 835.896 36.9509C836.565 36.2817 836.943 35.375 836.945 34.4286V16.6915C836.944 16.5796 836.9 16.4724 836.821 16.3932C836.742 16.3142 836.634 16.2694 836.522 16.2692H800.387C800.276 16.2694 800.168 16.3142 800.089 16.3932C800.009 16.4724 799.965 16.5796 799.965 16.6915V23.2775C799.965 23.3893 800.009 23.4965 800.089 23.5756C800.168 23.6547 800.276 23.6993 800.387 23.6996H826.007L826.014 23.7004L826.04 23.7031C826.163 23.7104 826.284 23.7446 826.394 23.8037C826.41 23.8116 826.425 23.8205 826.441 23.8296C826.458 23.8399 826.473 23.8503 826.489 23.8616C826.618 23.9463 826.72 24.07 826.775 24.2152L826.778 24.2229C826.792 24.2607 826.805 24.2994 826.814 24.3389C826.833 24.4072 826.843 24.4775 826.844 24.5484V24.5557L826.843 24.5638L826.844 24.5701V30.0338C826.843 30.1757 826.787 30.3118 826.686 30.4122C826.586 30.5126 826.451 30.569 826.308 30.5695H792.697C792.555 30.569 792.419 30.5126 792.319 30.4122C792.218 30.3118 792.162 30.1757 792.162 30.0338V8.96616C792.162 8.82423 792.218 8.68822 792.319 8.58784C792.419 8.48747 792.555 8.43094 792.697 8.4305Z" fill="white"/>
<path d="M616.272 1.01953H565.494C564.548 1.02233 563.642 1.39949 562.972 2.06864C562.304 2.73778 561.926 3.64454 561.924 4.59085V19.7712C561.926 20.7176 562.304 21.6243 562.972 22.2935C563.642 22.9627 564.548 23.3399 565.494 23.3427H580.938V23.349H606.171C606.313 23.3494 606.45 23.406 606.55 23.5064C606.649 23.6067 606.706 23.7428 606.706 23.8848V30.3927C606.706 30.5347 606.649 30.6706 606.55 30.771C606.45 30.8714 606.313 30.928 606.171 30.9283H571.356L562.459 30.9292C562.317 30.9297 562.182 30.9862 562.08 31.0866C561.981 31.187 561.924 31.323 561.924 31.465V37.4637C561.924 37.6056 561.981 37.7418 562.08 37.842C562.182 37.9424 562.317 37.999 562.459 37.9994H613.237C614.183 37.9966 615.089 37.6194 615.759 36.9502C616.427 36.2811 616.805 35.3744 616.807 34.428V19.6691C616.807 17.7049 615.2 15.7828 613.237 15.7828H580.938V15.7889H572.56C572.418 15.7886 572.283 15.7319 572.181 15.6316C572.082 15.5312 572.025 15.3952 572.025 15.2533V8.74532C572.025 8.60338 572.082 8.46738 572.181 8.367C572.283 8.26662 572.418 8.21001 572.56 8.20959H608.591V8.18519H616.272C616.414 8.18479 616.549 8.12824 616.651 8.02786C616.75 7.92748 616.807 7.79142 616.807 7.64946V1.55519C616.807 1.41324 616.75 1.27723 616.651 1.17686C616.549 1.0765 616.414 1.01992 616.272 1.01953Z" fill="white"/>
<path d="M771.044 1.01953H761.788C761.676 1.01986 761.57 1.06445 761.49 1.14358C761.411 1.2227 761.367 1.32988 761.367 1.44178V28.8428C761.125 29.5246 760.237 29.3724 759.346 28.6416L747.083 17.0432V17.0468L733.941 4.59085C729.851 1.01954 729.101 1.01953 726.421 1.01953H717.005C716.894 1.01986 716.786 1.06445 716.708 1.14358C716.627 1.2227 716.583 1.32988 716.583 1.44178V37.5771C716.583 37.6891 716.627 37.7963 716.708 37.8753C716.786 37.9545 716.894 37.9992 717.005 37.9994H726.262C726.373 37.999 726.48 37.9545 726.559 37.8753C726.638 37.7963 726.684 37.6891 726.684 37.5771V10.7891C726.922 10.0366 727.906 10.2403 728.853 11.0824L746.769 28.0721V28.0743L747.035 28.3244L749.471 30.6347V30.6138L753.531 34.428C757.493 37.9994 758.685 37.9994 761.367 37.9994H771.044C771.157 37.9992 771.264 37.9545 771.343 37.8753C771.422 37.7963 771.466 37.6891 771.468 37.5771V1.44178C771.466 1.32988 771.422 1.2227 771.343 1.14358C771.264 1.06445 771.157 1.01985 771.044 1.01953Z" fill="white"/>
<path d="M545.972 1.01953H501.802C500.382 1.02367 499.022 1.58936 498.019 2.59309C497.015 3.59681 496.449 4.95697 496.445 6.37644V37.4637C496.445 37.6056 496.502 37.7416 496.602 37.842C496.703 37.9424 496.839 37.999 496.981 37.9994H506.01C506.152 37.999 506.289 37.9424 506.388 37.842C506.488 37.7416 506.545 37.6056 506.546 37.4637V25.7534C506.55 25.6994 506.559 25.6459 506.572 25.5933C506.581 25.5538 506.593 25.5152 506.608 25.4775L506.612 25.4696C506.667 25.3246 506.767 25.201 506.897 25.1161C506.913 25.1049 506.929 25.0944 506.945 25.0842C506.961 25.0751 506.976 25.0662 506.993 25.0583C507.099 25.0008 507.217 24.967 507.338 24.959H540.435C540.555 24.967 540.673 25.0008 540.78 25.0583C540.796 25.0662 540.812 25.0751 540.828 25.0842C540.844 25.0944 540.86 25.1049 540.875 25.1161C541.006 25.2009 541.106 25.3246 541.161 25.4696L541.165 25.4775C541.18 25.5152 541.192 25.554 541.201 25.5933C541.217 25.6529 541.225 25.7139 541.229 25.7755V37.4637C541.229 37.6056 541.286 37.7416 541.385 37.842C541.485 37.9424 541.622 37.999 541.764 37.9994H550.793C550.935 37.999 551.071 37.9424 551.172 37.842C551.272 37.7416 551.329 37.6056 551.329 37.4637V6.37644C551.325 4.95696 550.759 3.59687 549.755 2.59316C548.751 1.58944 547.392 1.02369 545.972 1.01953ZM507.082 8.28308H540.692C540.834 8.28354 540.971 8.3402 541.071 8.44057C541.171 8.54094 541.228 8.67689 541.229 8.81882V16.7187L541.228 16.7282C541.22 16.8521 541.186 16.9727 541.127 17.0817C541.119 17.098 541.109 17.1134 541.101 17.1296C541.091 17.1458 541.08 17.1616 541.069 17.1772C540.985 17.3073 540.86 17.4073 540.716 17.4628L540.707 17.4663C540.67 17.4811 540.631 17.4931 540.591 17.5023C540.538 17.5158 540.484 17.5246 540.428 17.5285H507.358C507.297 17.5252 507.238 17.5161 507.18 17.5012C507.141 17.492 507.103 17.48 507.064 17.4653L507.057 17.4617C506.911 17.4062 506.788 17.3063 506.703 17.1762C506.692 17.1605 506.682 17.1446 506.672 17.1283C506.662 17.1123 506.654 17.0969 506.645 17.0806C506.587 16.9731 506.554 16.8542 506.546 16.7323V8.81882C506.546 8.67687 506.603 8.54088 506.703 8.44049C506.803 8.34011 506.94 8.28352 507.082 8.28308Z" fill="white"/>
</svg>